<svg width="19" height="19" viewBox="0 0 19 19" fill="none" xmlns="http://www.w3.org/2000/svg">
<path d="M12.0625 5C12.0625 5.74592 11.7662 6.46129 11.2387 6.98874C10.7113 7.51618 9.9959 7.8125 9.24998 7.8125C8.50406 7.8125 7.78869 7.51618 7.26124 6.98874C6.7338 6.46129 6.43748 5.74592 6.43748 5C6.43748 4.25408 6.7338 3.53871 7.26124 3.01126C7.78869 2.48382 8.50406 2.1875 9.24998 2.1875C9.9959 2.1875 10.7113 2.48382 11.2387 3.01126C11.7662 3.53871 12.0625 4.25408 12.0625 5V5ZM3.62573 15.5885C3.64983 14.1128 4.25299 12.7056 5.30512 11.6705C6.35724 10.6354 7.77405 10.0554 9.24998 10.0554C10.7259 10.0554 12.1427 10.6354 13.1948 11.6705C14.247 12.7056 14.8501 14.1128 14.8742 15.5885C13.1098 16.3976 11.1911 16.8151 9.24998 16.8125C7.24298 16.8125 5.33798 16.3745 3.62573 15.5885Z" stroke="#FAFAF9" stroke-width="1.5" stroke-linecap="round" stroke-linejoin="round"/>
</svg>
